<?xml version="1.0" standalone="no"?>
<!DOCTYPE svg PUBLIC "-//W3C//DTD SVG 20010904//EN"
 "http://www.w3.org/TR/2001/REC-SVG-20010904/DTD/svg10.dtd">
<svg version="1.0" xmlns="http://www.w3.org/2000/svg"
 width="480.000000pt" height="640.000000pt" viewBox="0 0 480.000000 640.000000"
 preserveAspectRatio="xMidYMid meet">

<g transform="translate(0.000000,640.000000) scale(0.100000,-0.100000)"
fill="#000000" stroke="none">
<path d="M2620 6294 c-38 -7 -183 -82 -224 -116 -66 -55 -112 -158 -87 -196 5
-8 4 -30 -2 -53 -7 -29 -6 -47 4 -71 8 -20 12 -62 10 -113 -2 -55 2 -93 13
-120 15 -37 14 -46 -6 -125 -12 -47 -21 -116 -21 -154 0 -59 -3 -72 -25 -95
-39 -41 -213 -258 -253 -315 -20 -28 -48 -73 -64 -101 -15 -27 -30 -52 -34
-55 -12 -9 -57 -85 -81 -135 -13 -27 -51 -95 -85 -150 -34 -55 -84 -145 -111
-200 -27 -55 -55 -104 -62 -110 -10 -8 -62 -141 -92 -235 -4 -14 -27 -67 -50
-119 -23 -51 -44 -108 -45 -125 -7 -71 -65 -246 -95 -288 -11 -15 -22 -46 -26
-70 -8 -59 -53 -242 -74 -304 -10 -28 -43 -91 -74 -141 -31 -50 -56 -94 -56
-98 0 -3 -21 -39 -46 -78 -26 -40 -60 -97 -75 -127 -16 -30 -45 -72 -64 -94
-19 -21 -35 -43 -35 -48 0 -15 -134 -228 -167 -265 -15 -17 -48 -71 -73 -119
-25 -49 -57 -102 -71 -119 -39 -45 -44 -70 -17 -89 12 -9 37 -16 56 -16 29 0
48 15 160 128 198 200 215 220 317 366 19 27 65 81 102 119 l68 70 4 -39 c4
-50 -16 -224 -34 -289 -37 -136 -66 -323 -64 -420 1 -54 -7 -77 -46 -140 -14
-22 -38 -68 -54 -102 -16 -34 -38 -71 -49 -83 -10 -11 -32 -53 -47 -93 -16
-40 -32 -76 -36 -82 -4 -5 -26 -46 -49 -90 -24 -44 -51 -91 -60 -105 -9 -14
-34 -60 -54 -102 -21 -43 -44 -82 -52 -89 -8 -6 -14 -26 -14 -43 -1 -17 -11
-49 -23 -72 -50 -94 -147 -296 -147 -309 0 -4 -8 -19 -19 -33 -10 -15 -21 -43
-25 -62 -3 -19 -20 -69 -37 -110 -25 -61 -30 -84 -25 -124 3 -27 11 -53 18
-58 19 -11 82 -10 95 3 8 8 17 5 33 -11 19 -19 29 -21 64 -16 22 4 52 15 66
24 31 22 166 293 205 412 16 47 34 89 42 93 7 4 13 21 13 37 0 16 4 31 9 34 5
4 19 36 31 73 12 36 34 92 50 122 15 31 34 73 41 94 7 20 17 37 21 37 4 0 8 5
8 10 0 6 11 33 24 60 14 28 27 63 31 78 3 15 16 43 28 62 19 32 76 176 137
350 42 118 51 135 81 155 44 30 141 155 194 253 15 28 32 52 37 52 4 0 8 9 8
20 0 10 9 27 20 38 11 10 31 40 46 67 27 51 174 268 216 318 13 15 33 29 46
32 25 4 82 -13 82 -25 0 -5 16 -18 36 -30 30 -19 45 -22 101 -17 36 3 68 9 72
14 3 5 19 18 34 30 29 23 52 23 143 3 22 -5 101 -14 174 -20 91 -7 138 -14
149 -24 27 -25 97 -31 125 -12 31 20 46 20 46 2 0 -20 -65 -39 -107 -31 -43 8
-37 -6 12 -30 49 -22 103 -12 146 27 19 16 43 36 54 43 26 17 119 25 287 26
l138 0 25 33 c26 34 33 70 15 81 -5 3 -10 26 -10 50 0 41 -2 44 -37 56 -26 9
-90 12 -200 10 l-161 -2 -20 29 c-18 25 -135 92 -161 92 -5 0 -22 6 -38 14
-15 8 -48 20 -73 27 -71 20 -120 49 -120 70 0 10 8 33 18 51 10 18 29 60 42
93 13 33 27 65 31 70 4 6 20 48 34 93 33 104 120 290 146 312 3 3 19 27 35 53
16 27 37 61 46 75 20 31 75 129 133 241 23 42 66 123 97 181 31 58 74 155 96
215 83 229 87 257 77 584 -4 146 -9 316 -10 376 -2 133 -8 172 -45 295 -15 52
-31 108 -34 123 -4 15 -22 61 -41 102 -19 41 -35 77 -35 80 0 19 -109 227
-137 261 -32 40 -160 134 -182 134 -6 0 -36 12 -68 26 -46 21 -77 27 -148 29
-49 2 -101 1 -115 -1z m-60 -3494 c30 -15 81 -40 113 -56 l58 -28 -23 -18
c-27 -21 -108 -23 -208 -7 -36 6 -87 14 -115 18 -74 9 -71 27 24 127 45 47 82
91 83 97 1 7 4 -14 7 -47 l6 -58 55 -28z m-485 59 c17 -9 58 -22 92 -30 57
-12 64 -16 74 -46 14 -42 13 -230 -2 -289 -12 -47 -41 -70 -74 -58 -20 8 -20
64 0 64 8 0 15 8 16 18 0 9 2 28 4 42 9 67 6 138 -6 158 -12 19 -23 22 -71 22
-61 0 -73 11 -36 31 l22 12 -22 8 c-12 5 -22 12 -22 17 0 5 -13 15 -30 22 -33
14 -36 21 -18 50 10 16 15 17 28 7 8 -7 29 -19 45 -28z m245 -190 c16 -65 5
-139 -20 -146 -11 -3 -20 -12 -22 -21 -2 -9 -2 40 -1 109 1 68 2 126 2 128 1
2 7 -2 15 -8 8 -7 20 -34 26 -62z m-182 44 c29 -7 34 -32 25 -123 l-8 -75 -35
-6 c-23 -4 -27 -7 -12 -8 28 -1 19 -21 -9 -21 -10 0 -19 7 -19 15 0 13 -17 15
-122 9 -68 -3 -162 -12 -210 -19 -48 -7 -96 -11 -108 -8 -26 7 -26 38 0 81 11
18 20 40 20 50 1 33 27 53 80 59 29 3 46 9 39 13 -18 12 23 30 65 30 33 0 36
-3 36 -27 0 -22 2 -25 10 -13 5 8 10 11 10 5 0 -5 5 -3 10 5 14 22 12 30 -5
24 -8 -4 -15 -1 -15 5 0 12 201 15 248 4z m362 -39 c30 -3 67 -7 81 -8 14 -1
30 -6 37 -9 24 -16 105 -24 139 -15 28 7 40 6 61 -9 15 -10 36 -23 47 -28 14
-8 19 -19 18 -40 -2 -17 -4 -44 -5 -62 -3 -29 -7 -33 -43 -41 -88 -18 -491 17
-501 43 -3 6 2 32 10 58 8 27 12 65 9 89 l-6 41 49 -7 c27 -3 74 -9 104 -12z
m953 -36 c11 -6 17 -21 17 -46 0 -20 4 -44 10 -52 9 -15 -16 -69 -35 -72 -5
-1 -50 -2 -100 -2 -49 -1 -134 -5 -187 -10 -97 -9 -98 -8 -98 13 0 12 8 36 17
54 11 21 16 49 14 79 l-3 47 134 4 c145 3 203 0 231 -15z m-1323 -184 c0 -9
-7 -14 -17 -12 -25 5 -28 28 -4 28 12 0 21 -6 21 -16z m815 -83 c-3 -6 -11
-11 -17 -11 -6 0 -6 6 2 15 14 17 26 13 15 -4z"/>
</g>
</svg>
