<?xml version="1.0" standalone="no"?>
<!DOCTYPE svg PUBLIC "-//W3C//DTD SVG 20010904//EN"
 "http://www.w3.org/TR/2001/REC-SVG-20010904/DTD/svg10.dtd">
<svg version="1.0" xmlns="http://www.w3.org/2000/svg"
 width="480.000000pt" height="640.000000pt" viewBox="0 0 480.000000 640.000000"
 preserveAspectRatio="xMidYMid meet">

<g transform="translate(0.000000,640.000000) scale(0.100000,-0.100000)"
fill="#000000" stroke="none">
<path d="M3106 5483 c-19 -16 -36 -23 -51 -19 -12 3 -55 9 -95 12 -70 7 -73 6
-66 -12 19 -46 19 -94 1 -114 -22 -24 -77 -27 -95 -5 -13 16 -55 21 -46 6 10
-15 -11 -59 -33 -71 -16 -8 -28 -7 -52 5 -24 13 -34 14 -45 4 -11 -9 -18 -8
-32 5 -24 21 -32 20 -32 -1 -1 -16 -2 -16 -16 2 -9 11 -18 16 -20 10 -3 -5 -9
-17 -14 -25 -9 -13 -12 -13 -21 3 -11 19 -39 23 -39 6 0 -11 -57 -8 -112 6
-18 5 -28 3 -28 -3 0 -6 -16 -28 -35 -49 -36 -39 -42 -53 -25 -53 17 0 12
-106 -5 -120 -8 -7 -15 -21 -15 -31 0 -11 -4 -19 -9 -19 -12 0 -71 -59 -71
-71 0 -5 3 -8 8 -8 29 5 42 -3 39 -23 -1 -13 3 -22 9 -21 7 1 20 -7 29 -17 10
-11 15 -20 12 -20 -3 0 5 -12 19 -27 14 -16 33 -36 42 -46 9 -10 16 -24 14
-31 -1 -7 7 -21 18 -31 11 -10 20 -24 20 -32 0 -7 7 -13 16 -13 10 0 14 -5 10
-16 -3 -8 -2 -12 4 -9 6 3 11 0 11 -7 3 -29 5 -34 24 -66 10 -17 27 -34 36
-37 19 -6 34 -48 19 -53 -13 -5 -13 -59 0 -64 7 -2 7 -13 1 -33 -5 -17 -12
-49 -14 -72 -4 -34 -2 -41 10 -36 13 5 14 -4 8 -63 -8 -84 -29 -180 -55 -256
-26 -74 -90 -198 -104 -200 -6 0 -17 -2 -25 -2 -8 -1 -28 -26 -45 -57 -38 -69
-74 -114 -83 -105 -4 3 -1 12 5 18 7 7 12 16 12 21 0 5 -17 -14 -37 -43 -108
-150 -143 -181 -168 -147 -10 14 -17 8 -46 -38 -19 -30 -42 -57 -52 -60 -9 -4
-15 -10 -12 -15 11 -17 -148 -222 -169 -218 -14 3 -56 -24 -56 -36 0 -5 -7
-18 -17 -28 -15 -17 -15 -18 3 -18 18 -1 17 -2 -3 -19 -13 -11 -23 -23 -23
-28 0 -5 -8 -15 -17 -24 -10 -8 -33 -33 -51 -55 -19 -21 -53 -59 -76 -84 -23
-25 -63 -72 -88 -105 -25 -33 -66 -82 -91 -108 l-44 -49 -7 -111 c-9 -149 -18
-216 -45 -312 -31 -111 -43 -206 -55 -455 -4 -77 -35 -232 -49 -241 -5 -3 -11
-34 -14 -69 l-6 -62 41 21 c26 13 47 34 57 55 15 31 34 54 69 84 8 6 22 35 31
64 15 50 57 108 80 108 18 0 140 136 201 225 11 17 33 54 49 83 15 28 32 52
37 52 4 0 8 9 8 20 0 10 9 27 20 38 11 10 31 40 46 67 34 65 184 282 223 324
17 18 35 30 41 26 5 -3 10 -1 10 4 0 16 -128 14 -232 -3 -48 -8 -96 -12 -108
-9 -26 7 -26 38 0 81 11 18 20 40 20 50 1 33 27 53 80 59 29 3 46 9 39 13 -18
12 23 30 65 30 33 0 36 -3 36 -27 0 -22 2 -25 10 -13 5 8 10 11 10 5 0 -5 5
-3 10 5 14 22 12 30 -5 24 -8 -4 -15 -1 -15 5 0 7 28 11 80 11 73 0 80 2 80
20 0 10 10 25 22 31 l22 12 -22 8 c-12 5 -22 12 -22 17 0 5 -13 15 -30 22 -16
7 -30 18 -30 24 1 18 28 48 34 38 11 -18 81 -49 143 -62 55 -12 64 -18 73 -43
5 -17 10 -41 10 -53 0 -26 15 -32 23 -10 3 9 15 12 31 9 18 -4 26 -1 26 9 0 7
21 34 46 58 26 25 64 67 85 93 l39 49 0 -34 0 -34 90 1 c86 0 90 1 90 22 0 12
8 37 18 55 10 18 29 60 42 93 13 33 27 65 31 70 4 6 20 48 34 93 33 104 120
290 146 312 3 3 19 27 35 53 16 27 37 61 46 75 20 31 75 129 133 241 23 42 66
123 97 181 31 58 74 155 96 215 83 230 87 257 77 584 -5 146 -9 303 -9 348 -1
45 -4 84 -7 88 -4 3 -21 7 -39 7 -17 1 -34 7 -37 15 -3 7 -13 13 -23 13 -23 0
-36 18 -31 44 1 11 -2 16 -8 12 -7 -4 -11 1 -11 13 0 12 -4 21 -9 21 -5 0 -11
10 -13 23 -3 18 -10 22 -48 25 -25 2 -50 9 -55 16 -9 11 -16 9 -39 -11z"/>
<path d="M2202 3698 c-6 -17 -10 -33 -9 -34 5 -6 23 12 40 39 17 26 17 27 -1
27 -11 0 -22 -12 -30 -32z"/>
</g>
</svg>
