<?xml version="1.0" standalone="no"?>
<!DOCTYPE svg PUBLIC "-//W3C//DTD SVG 20010904//EN"
 "http://www.w3.org/TR/2001/REC-SVG-20010904/DTD/svg10.dtd">
<svg version="1.0" xmlns="http://www.w3.org/2000/svg"
 width="480.000000pt" height="640.000000pt" viewBox="0 0 480.000000 640.000000"
 preserveAspectRatio="xMidYMid meet">

<g transform="translate(0.000000,640.000000) scale(0.100000,-0.100000)"
fill="#000000" stroke="none">
<path d="M2678 6293 c23 -2 59 -2 80 0 20 2 1 4 -43 4 -44 0 -61 -2 -37 -4z"/>
<path d="M1795 2719 c-33 -11 -64 -24 -69 -29 -6 -6 -20 -10 -31 -10 -15 0
-27 -11 -37 -32 -8 -18 -25 -53 -37 -78 -26 -55 -27 -82 -2 -104 15 -14 26
-15 62 -7 132 29 544 54 558 34 3 -5 51 -14 106 -21 55 -7 129 -17 165 -23 61
-10 411 -15 782 -10 l168 2 25 33 c26 34 33 70 15 81 -5 3 -10 26 -10 50 0 41
-2 44 -37 56 -27 9 -89 11 -213 8 -332 -8 -580 -3 -690 14 -58 9 -145 21 -195
26 -49 6 -114 15 -144 21 -29 5 -122 10 -205 9 -122 0 -163 -4 -211 -20z"/>
</g>
</svg>
