<?xml version="1.0" standalone="no"?>
<!DOCTYPE svg PUBLIC "-//W3C//DTD SVG 20010904//EN"
 "http://www.w3.org/TR/2001/REC-SVG-20010904/DTD/svg10.dtd">
<svg version="1.0" xmlns="http://www.w3.org/2000/svg"
 width="480.000000pt" height="640.000000pt" viewBox="0 0 480.000000 640.000000"
 preserveAspectRatio="xMidYMid meet">

<g transform="translate(0.000000,640.000000) scale(0.100000,-0.100000)"
fill="#000000" stroke="none">
<path d="M3120 6078 c0 -25 -8 -42 -30 -63 -30 -28 -39 -55 -20 -55 6 0 10 -7
10 -15 0 -16 34 -55 49 -55 5 0 14 -6 21 -14 6 -8 18 -12 26 -9 8 3 21 0 29
-7 7 -6 25 -10 38 -8 l25 3 -53 110 c-29 61 -63 119 -74 129 -21 19 -21 19
-21 -16z"/>
<path d="M2470 4120 c0 -6 -12 -16 -26 -22 -15 -7 -27 -23 -31 -40 -3 -15 -9
-25 -14 -22 -5 3 -12 -2 -15 -10 -3 -9 -15 -16 -25 -16 -10 0 -19 -4 -19 -9 0
-5 -15 -24 -33 -43 -77 -76 -140 -118 -177 -118 -19 0 -31 -6 -35 -19 -3 -11
-17 -27 -31 -36 -34 -22 -122 -48 -140 -41 -9 3 -14 -1 -14 -14 0 -42 -86 -65
-144 -38 -23 10 -29 8 -48 -14 -42 -45 -139 -57 -162 -19 -4 6 -17 4 -35 -7
-25 -14 -34 -14 -69 -3 -42 14 -62 9 -62 -15 0 -27 -60 -188 -80 -216 -11 -15
-22 -46 -26 -70 -8 -59 -53 -242 -74 -304 -10 -28 -43 -91 -74 -141 -31 -50
-56 -94 -56 -98 0 -3 -21 -39 -46 -78 -26 -40 -60 -97 -75 -127 -16 -30 -45
-72 -64 -94 -19 -21 -35 -43 -35 -48 0 -15 -134 -228 -167 -265 -15 -17 -48
-71 -73 -119 -25 -49 -57 -102 -71 -119 -39 -45 -44 -70 -17 -89 12 -9 37 -16
56 -16 29 0 48 15 160 128 198 200 215 220 317 366 18 27 81 98 140 157 58 59
122 130 142 156 20 26 40 50 45 51 4 2 8 8 8 14 0 5 6 15 13 22 6 7 44 48 82
91 39 43 92 101 118 129 27 28 61 67 75 86 15 19 38 46 50 60 13 14 35 41 48
61 l24 35 72 -10 c51 -6 80 -6 102 2 21 8 32 9 37 1 3 -6 9 -1 12 12 5 19 9
21 19 11 10 -10 15 -8 25 10 12 22 12 22 13 3 1 -20 1 -20 15 -1 15 20 15 20
15 0 1 -19 1 -19 12 1 11 19 11 19 19 0 6 -18 8 -18 18 8 6 15 13 27 17 27 3
0 3 -7 0 -16 -4 -11 -2 -15 8 -11 8 3 17 -1 20 -10 6 -14 9 -14 26 2 15 14 20
15 20 4 0 -12 2 -12 9 0 8 12 12 12 25 2 9 -7 24 -11 35 -8 26 6 51 -10 51
-35 0 -21 0 -21 21 -2 17 16 22 16 30 4 5 -8 6 -21 4 -29 -4 -11 -2 -11 9 -2
14 12 46 5 46 -9 0 -5 10 -6 23 -3 21 4 22 4 3 -11 -19 -16 -19 -16 5 -16 13
0 35 -7 47 -16 31 -21 44 -14 92 51 22 30 85 100 138 155 53 54 108 121 122
147 14 26 31 54 38 62 9 9 11 24 7 40 -3 14 -6 32 -7 39 -1 6 -7 12 -15 12 -7
0 -13 4 -13 10 0 5 -7 6 -17 3 -12 -5 -14 -3 -8 7 6 10 4 12 -8 7 -11 -4 -17
-1 -17 8 0 8 5 15 12 15 6 0 8 3 4 8 -7 7 -11 8 -37 11 -5 0 -7 6 -3 13 5 8 2
9 -9 5 -11 -4 -17 -1 -17 9 0 8 -5 12 -10 9 -6 -3 -13 0 -16 9 -3 8 -12 12
-20 9 -8 -3 -22 1 -31 8 -9 8 -32 14 -52 14 -23 0 -35 4 -33 13 1 6 -7 12 -19
12 -16 0 -19 4 -14 20 5 15 3 18 -9 14 -9 -3 -16 -2 -16 4 0 17 -30 23 -53 11
-16 -9 -22 -9 -25 0 -3 8 -13 5 -29 -11 -19 -16 -27 -19 -30 -10 -4 10 -8 10
-19 1 -14 -11 -74 -21 -74 -12 0 11 31 63 38 63 4 0 13 21 19 48 7 26 19 70
26 97 22 81 27 115 17 115 -6 0 -10 -5 -10 -10z"/>
</g>
</svg>
