<?xml version="1.0" standalone="no"?>
<!DOCTYPE svg PUBLIC "-//W3C//DTD SVG 20010904//EN"
 "http://www.w3.org/TR/2001/REC-SVG-20010904/DTD/svg10.dtd">
<svg version="1.0" xmlns="http://www.w3.org/2000/svg"
 width="480.000000pt" height="640.000000pt" viewBox="0 0 480.000000 640.000000"
 preserveAspectRatio="xMidYMid meet">

<g transform="translate(0.000000,640.000000) scale(0.100000,-0.100000)"
fill="#000000" stroke="none">
<path d="M3140 6082 c0 -6 -21 -33 -46 -61 -33 -36 -53 -51 -72 -51 -14 0 -33
-8 -42 -17 -15 -16 -14 -19 14 -33 44 -22 52 -78 24 -179 -24 -90 -38 -118
-71 -149 -22 -21 -24 -31 -25 -105 -1 -82 -13 -135 -35 -149 -7 -4 -40 -8 -74
-8 l-63 0 0 -56 c0 -32 4 -53 9 -49 14 8 31 -29 31 -69 0 -46 -37 -89 -92
-105 -24 -7 -54 -17 -68 -23 -19 -6 -37 -4 -64 7 -20 9 -46 13 -57 10 -24 -8
-69 19 -69 40 0 8 -4 15 -8 15 -5 0 -21 25 -37 55 -23 47 -26 60 -17 80 7 15
20 25 32 25 33 0 23 16 -20 30 -22 7 -40 16 -40 20 0 4 -15 -7 -33 -24 -28
-26 -31 -33 -20 -44 23 -23 27 -64 15 -147 -18 -124 12 -239 94 -355 17 -25
38 -61 47 -80 22 -47 47 -173 47 -232 0 -45 -1 -48 -27 -48 -17 0 -39 12 -59
31 l-33 32 -6 -36 c-4 -22 -14 -39 -24 -42 -10 -3 -24 -17 -31 -30 -7 -14 -19
-25 -25 -25 -18 0 -55 -44 -55 -64 0 -20 -32 -52 -61 -61 -11 -4 -17 -11 -14
-16 4 -5 -2 -9 -12 -9 -10 0 -36 -14 -57 -30 -22 -17 -45 -30 -51 -30 -7 0
-25 -11 -41 -25 -16 -14 -34 -25 -41 -25 -6 0 -13 -6 -15 -12 -3 -9 -27 -13
-71 -13 -49 0 -67 -4 -67 -13 0 -11 -16 -13 -64 -11 -50 3 -68 0 -83 -14 -41
-37 -115 -14 -125 38 -2 14 -9 5 -21 -30 -10 -27 -39 -97 -64 -154 -25 -57
-47 -118 -48 -135 -7 -71 -65 -246 -95 -288 -11 -15 -22 -46 -26 -70 -8 -59
-53 -242 -74 -304 -10 -28 -43 -91 -74 -141 -31 -50 -56 -94 -56 -98 0 -3 -21
-39 -46 -78 -26 -40 -60 -97 -75 -127 -16 -30 -45 -72 -64 -94 -19 -21 -35
-43 -35 -48 0 -15 -134 -228 -167 -265 -15 -17 -48 -71 -73 -119 -25 -49 -57
-102 -71 -119 -39 -45 -44 -70 -17 -89 12 -9 37 -16 56 -16 29 0 48 15 160
128 198 200 215 220 317 366 19 27 65 81 102 119 l68 70 4 -39 c4 -50 -16
-224 -34 -289 -37 -136 -66 -323 -64 -420 1 -54 -7 -77 -46 -140 -14 -22 -38
-68 -54 -102 -16 -34 -38 -71 -49 -83 -10 -11 -32 -53 -47 -93 -16 -40 -32
-76 -36 -82 -4 -5 -26 -46 -49 -90 -24 -44 -51 -91 -60 -105 -9 -14 -34 -60
-54 -102 -21 -43 -44 -82 -52 -89 -8 -6 -14 -26 -14 -43 -1 -17 -11 -49 -23
-72 -50 -94 -147 -296 -147 -309 0 -4 -8 -19 -19 -33 -10 -15 -21 -43 -25 -62
-3 -19 -20 -69 -37 -110 -25 -61 -30 -84 -25 -124 3 -27 11 -53 18 -58 19 -11
82 -10 95 3 8 8 17 5 33 -11 19 -19 29 -21 64 -16 22 4 52 15 66 24 31 22 166
293 205 412 16 47 34 89 42 93 7 4 13 21 13 37 0 16 4 31 9 34 5 4 19 36 31
73 12 36 34 92 50 122 15 31 34 73 41 94 7 20 17 37 21 37 4 0 8 5 8 10 0 6
11 33 24 60 14 28 27 63 31 78 3 15 16 43 28 62 19 32 76 176 137 350 42 118
51 135 81 155 44 30 141 155 194 253 15 28 32 52 37 52 4 0 8 9 8 20 0 10 9
27 20 38 11 10 31 40 46 67 24 45 167 257 212 313 10 13 27 24 37 26 10 1 21
8 23 14 5 17 -121 15 -230 -2 -48 -8 -96 -12 -108 -9 -26 7 -26 38 0 81 11 18
20 40 20 50 1 26 22 48 53 56 15 3 27 13 27 20 0 19 33 24 183 32 100 6 127
10 127 21 0 8 10 23 23 34 19 16 20 18 4 19 -10 0 -20 6 -23 14 -3 8 -19 20
-35 26 -33 14 -38 35 -10 49 15 8 36 4 91 -19 40 -17 77 -30 82 -30 5 0 31 -9
57 -20 33 -15 47 -27 48 -42 4 -44 21 -38 92 36 40 41 80 84 88 96 l15 21 19
-22 c16 -19 21 -20 36 -8 9 8 14 9 10 3 -4 -7 15 -11 59 -11 48 -1 64 2 64 13
0 7 8 28 18 46 10 18 29 60 42 93 13 33 27 65 31 70 4 6 20 49 35 95 14 47 38
108 51 135 22 44 135 236 185 313 20 31 76 131 133 241 23 42 66 123 97 181
49 90 106 228 139 335 38 119 49 351 32 629 -6 101 -7 107 -27 104 -14 -2 -22
-13 -27 -36 -8 -38 -56 -112 -74 -112 -6 0 -27 -7 -44 -16 -55 -27 -119 -15
-189 37 -33 24 -69 49 -79 55 -15 9 -18 24 -17 88 0 51 5 80 13 85 18 11 41
60 41 86 0 13 6 25 14 28 7 3 16 21 20 40 7 36 21 53 60 72 11 5 37 40 56 76
19 36 45 77 58 90 12 13 28 31 35 39 7 8 22 22 35 30 21 14 21 16 6 45 -9 17
-25 52 -35 79 -32 80 -118 254 -129 261 -5 3 -10 2 -10 -3z"/>
</g>
</svg>
