<?xml version="1.0" standalone="no"?>
<!DOCTYPE svg PUBLIC "-//W3C//DTD SVG 20010904//EN"
 "http://www.w3.org/TR/2001/REC-SVG-20010904/DTD/svg10.dtd">
<svg version="1.0" xmlns="http://www.w3.org/2000/svg"
 width="480.000000pt" height="640.000000pt" viewBox="0 0 480.000000 640.000000"
 preserveAspectRatio="xMidYMid meet">

<g transform="translate(0.000000,640.000000) scale(0.100000,-0.100000)"
fill="#000000" stroke="none">
<path d="M2620 6294 c-38 -7 -183 -82 -224 -116 -66 -55 -112 -158 -87 -196 5
-8 4 -30 -2 -53 -7 -29 -6 -47 4 -71 8 -20 12 -62 10 -113 -2 -55 2 -93 13
-120 14 -37 14 -46 -5 -125 -36 -149 -36 -164 3 -199 39 -35 82 -48 103 -31
12 10 19 8 35 -11 l19 -24 1 25 0 25 20 -25 20 -25 0 25 c1 23 2 23 10 5 8
-19 8 -19 15 -1 7 16 9 15 20 -10 l12 -29 8 28 c6 21 10 25 16 15 7 -10 11
-10 17 -1 6 10 12 10 28 -2 28 -21 68 -18 92 8 12 13 22 27 22 33 0 5 29 9 65
9 69 0 79 6 92 54 3 14 0 45 -7 70 -16 61 -17 66 -5 68 6 1 15 14 21 28 6 15
28 36 49 48 22 12 48 38 59 57 21 36 22 52 14 240 -2 58 0 68 22 90 14 14 29
25 33 25 12 0 47 47 47 64 0 25 -59 88 -129 134 -38 26 -74 47 -80 47 -6 0
-36 12 -68 26 -46 21 -77 27 -148 29 -49 2 -101 1 -115 -1z"/>
</g>
</svg>
