<?xml version="1.0" standalone="no"?>
<!DOCTYPE svg PUBLIC "-//W3C//DTD SVG 20010904//EN"
 "http://www.w3.org/TR/2001/REC-SVG-20010904/DTD/svg10.dtd">
<svg version="1.0" xmlns="http://www.w3.org/2000/svg"
 width="480.000000pt" height="640.000000pt" viewBox="0 0 480.000000 640.000000"
 preserveAspectRatio="xMidYMid meet">

<g transform="translate(0.000000,640.000000) scale(0.100000,-0.100000)"
fill="#000000" stroke="none">
<path d="M2961 6164 c0 -11 3 -14 6 -6 3 7 2 16 -1 19 -3 4 -6 -2 -5 -13z"/>
<path d="M3030 6171 c0 -6 5 -13 10 -16 18 -11 10 -34 -25 -69 -19 -19 -31
-37 -26 -41 11 -6 57 46 66 75 9 27 25 15 25 -18 0 -48 -34 -89 -87 -106 -48
-15 -48 -15 -8 -10 49 6 84 30 104 72 17 34 34 37 39 5 2 -11 -11 -35 -33 -58
-19 -21 -35 -42 -35 -47 0 -4 -22 -10 -49 -14 l-48 -6 -5 -82 c-7 -99 -41
-185 -82 -204 -14 -6 -26 -19 -26 -27 0 -11 4 -13 13 -6 83 68 99 100 105 217
l5 91 28 1 c20 0 27 -3 23 -11 -3 -7 1 -4 9 6 8 9 16 17 19 17 3 0 24 18 48
40 28 26 47 37 53 31 13 -13 -5 -35 -58 -74 -31 -22 -34 -28 -15 -22 14 4 39
18 56 31 17 13 36 24 42 24 25 0 10 -18 -39 -48 -28 -18 -47 -37 -44 -43 5 -7
11 -6 18 4 7 7 29 23 49 35 31 17 37 18 42 5 10 -26 7 -32 -26 -42 l-33 -9 31
-1 c16 -1 35 4 41 10 7 7 12 6 16 -4 6 -17 -28 -53 -58 -60 -17 -4 -16 -5 4
-6 14 0 32 6 42 15 16 15 39 12 39 -4 0 -16 -61 -43 -83 -37 -17 5 -19 4 -7
-4 20 -14 40 -14 72 3 22 12 27 12 32 1 7 -19 -20 -38 -54 -38 -16 0 -26 -5
-23 -10 3 -5 25 -7 48 -3 33 4 44 2 49 -10 8 -20 -16 -28 -59 -20 -19 4 -38 7
-42 6 -5 0 -8 -30 -9 -67 -1 -55 -6 -77 -29 -116 -15 -27 -38 -53 -51 -57 -13
-5 -24 -14 -24 -20 0 -5 -8 -10 -17 -11 -12 0 -13 -2 -5 -6 7 -3 20 1 28 8 9
7 26 18 38 24 11 5 37 41 56 79 20 38 41 71 48 74 7 2 20 18 29 35 9 18 18 27
20 20 5 -14 -25 -74 -68 -138 -17 -25 -29 -48 -26 -51 2 -3 14 10 25 28 12 18
31 45 43 59 12 15 29 51 39 79 15 43 19 49 24 32 4 -12 2 -30 -4 -42 -9 -16
-8 -20 6 -20 13 0 14 -3 4 -15 -10 -13 -9 -15 9 -15 14 0 21 -6 21 -20 0 -24
-42 -70 -65 -70 -8 0 -15 -4 -15 -9 0 -14 43 0 68 22 12 11 22 17 23 14 8 -54
-18 -89 -79 -107 l-27 -8 29 -1 c17 -1 43 10 63 25 35 26 39 22 23 -21 -6 -16
-14 -23 -22 -19 -7 4 -8 3 -4 -5 10 -16 -21 -26 -39 -11 -11 9 -15 9 -15 1 0
-7 13 -17 30 -22 32 -12 32 -30 0 -24 -23 4 -27 -10 -6 -18 13 -5 55 29 48 39
-1 3 2 12 7 22 8 13 10 10 9 -18 -1 -19 -7 -44 -14 -55 -17 -23 -18 -35 -4
-35 6 0 10 8 11 18 0 13 2 12 9 -5 6 -14 18 -23 30 -23 18 0 20 5 15 53 -9 93
-16 130 -45 227 -15 52 -31 108 -34 123 -4 15 -22 61 -41 102 -19 41 -35 77
-35 80 0 3 -25 56 -55 119 -39 81 -69 129 -104 165 -46 47 -81 65 -81 42z
m213 -512 c-21 -43 -31 -43 -35 -1 -3 36 -2 38 23 34 26 -4 26 -5 12 -33z"/>
<path d="M2955 6104 c-3 -21 -15 -49 -26 -62 -10 -13 -16 -29 -12 -35 4 -7 8
-6 11 3 3 8 10 22 17 30 19 24 36 83 26 93 -5 5 -11 -7 -16 -29z"/>
<path d="M2902 6102 c-1 -18 -7 -43 -14 -55 -13 -23 -19 -47 -12 -47 13 0 35
67 31 98 l-4 37 -1 -33z"/>
<path d="M2850 6088 c0 -12 -8 -30 -17 -41 -17 -19 -17 -20 5 -8 15 8 22 21
22 41 0 17 -2 30 -5 30 -3 0 -5 -10 -5 -22z"/>
<path d="M3035 5865 c22 -111 24 -145 10 -185 -8 -22 -10 -38 -5 -35 31 19 33
156 3 220 l-14 30 6 -30z"/>
<path d="M2895 5828 c-6 -33 -67 -109 -96 -121 -11 -4 -10 -6 1 -6 38 -2 129
133 106 156 -2 3 -8 -10 -11 -29z"/>
<path d="M2760 5820 c-9 -6 -10 -10 -3 -10 6 0 15 5 18 10 8 12 4 12 -15 0z"/>
<path d="M3105 5819 c-4 -6 -5 -12 -2 -15 2 -3 7 2 10 11 7 17 1 20 -8 4z"/>
<path d="M2760 5783 l-35 -14 35 6 c19 3 39 10 44 15 13 13 0 11 -44 -7z"/>
<path d="M2991 5774 c0 -11 3 -14 6 -6 3 7 2 16 -1 19 -3 4 -6 -2 -5 -13z"/>
<path d="M3020 5749 c-22 -88 -33 -111 -63 -146 -17 -19 -40 -39 -51 -43 -21
-9 -21 -9 0 -9 21 -1 64 35 91 76 15 22 46 153 39 161 -3 2 -10 -16 -16 -39z"/>
<path d="M2803 5760 c-20 -22 -49 -26 -56 -7 -4 9 -6 9 -6 0 -2 -32 56 -27 77
7 16 26 7 26 -15 0z"/>
<path d="M2893 5743 c-11 -21 -32 -44 -46 -51 -15 -7 -27 -18 -27 -23 0 -6 14
-3 32 8 29 17 76 88 65 99 -2 3 -13 -12 -24 -33z"/>
<path d="M3082 5712 c-11 -74 -45 -172 -75 -215 -25 -37 -17 -45 10 -9 40 54
104 274 83 287 -4 2 -12 -26 -18 -63z"/>
<path d="M3137 5753 c-4 -3 -7 -24 -7 -45 0 -50 -35 -154 -65 -194 -13 -17
-21 -34 -18 -38 9 -8 61 76 78 125 14 40 31 159 23 159 -3 0 -8 -3 -11 -7z"/>
<path d="M2972 5708 c-16 -51 -49 -98 -68 -98 -8 0 -14 -4 -14 -10 0 -5 7 -10
15 -10 21 0 73 75 81 117 9 49 1 49 -14 1z"/>
<path d="M3008 5609 c-28 -42 -70 -79 -92 -79 -19 -1 -20 -1 -3 -11 14 -8 24
-7 43 5 13 9 24 21 24 27 0 5 12 21 26 34 14 13 24 29 22 36 -2 7 -11 2 -20
-12z"/>
<path d="M3002 5553 c-5 -16 -19 -38 -31 -50 -11 -12 -17 -24 -12 -27 4 -3 16
2 24 12 22 24 50 92 38 92 -5 0 -13 -12 -19 -27z"/>
<path d="M3280 5566 c0 -7 -16 -31 -35 -52 -41 -45 -43 -50 -11 -29 36 24 78
95 56 95 -6 0 -10 -6 -10 -14z"/>
<path d="M2177 5125 c-70 -89 -77 -101 -52 -92 8 4 17 2 20 -3 4 -6 11 -10 17
-10 7 0 6 5 -2 15 -22 27 0 36 33 13 l32 -22 -24 27 c-16 17 -21 32 -17 44 7
16 10 15 28 -9 11 -16 26 -28 33 -28 9 0 5 9 -10 25 -28 27 -29 33 -15 55 9
13 13 11 30 -10 22 -28 28 -14 6 16 -8 10 -12 29 -9 42 3 12 3 22 1 22 -2 0
-34 -38 -71 -85z"/>
</g>
</svg>
