<?xml version="1.0" standalone="no"?>
<!DOCTYPE svg PUBLIC "-//W3C//DTD SVG 20010904//EN"
 "http://www.w3.org/TR/2001/REC-SVG-20010904/DTD/svg10.dtd">
<svg version="1.0" xmlns="http://www.w3.org/2000/svg"
 width="480.000000pt" height="640.000000pt" viewBox="0 0 480.000000 640.000000"
 preserveAspectRatio="xMidYMid meet">

<g transform="translate(0.000000,640.000000) scale(0.100000,-0.100000)"
fill="#000000" stroke="none">
<path d="M2956 6140 c-5 -25 -16 -64 -26 -87 -10 -24 -15 -45 -10 -48 12 -7
40 36 46 71 3 15 7 30 9 34 2 3 0 21 -4 40 l-8 35 -7 -45z"/>
<path d="M3025 6153 c-3 -16 -15 -45 -25 -65 -11 -20 -16 -39 -11 -42 10 -7
48 37 63 72 11 26 12 26 15 5 2 -12 -3 -35 -11 -51 -8 -16 -13 -32 -11 -36 3
-3 2 -4 -1 -1 -4 2 -20 -7 -36 -20 -16 -14 -36 -25 -44 -25 -8 0 -14 -4 -14
-10 0 -5 6 -10 14 -10 8 0 18 5 21 10 3 6 16 10 27 10 23 0 88 63 88 86 0 8 5
14 10 14 6 0 10 -10 10 -23 0 -31 -68 -97 -101 -97 -40 0 -55 -29 -61 -118 -7
-92 -34 -158 -79 -191 -16 -12 -29 -28 -29 -37 0 -10 4 -12 13 -5 83 68 99
100 105 217 l5 91 28 1 c20 0 27 -3 23 -11 -4 -7 14 10 40 37 25 27 46 45 46
41 0 -5 9 0 19 9 13 12 21 14 26 6 9 -14 -9 -35 -60 -73 -31 -22 -34 -28 -15
-22 14 4 39 18 56 31 17 13 36 24 42 24 25 0 10 -18 -39 -48 -29 -18 -47 -37
-44 -43 5 -7 14 -4 29 8 11 11 33 27 48 36 23 14 27 15 32 1 8 -22 9 -20 -24
-34 -16 -7 -28 -16 -25 -20 6 -9 44 -2 61 12 7 5 14 3 18 -7 3 -9 0 -15 -10
-15 -8 0 -12 -5 -9 -10 4 -6 -7 -13 -24 -16 -37 -8 -41 -24 -7 -24 14 0 31 9
39 20 13 19 15 19 27 4 12 -13 11 -17 -1 -25 -8 -5 -23 -9 -34 -10 -11 0 -29
-4 -40 -9 -18 -7 -18 -8 7 -15 17 -4 38 -1 57 8 25 12 31 13 35 1 5 -13 -5
-18 -57 -26 -38 -6 -14 -23 28 -21 35 2 45 -1 45 -13 0 -12 -10 -15 -52 -13
-43 3 -52 0 -59 -16 -5 -16 -8 -17 -12 -5 -4 8 -7 25 -9 38 -6 42 -23 23 -29
-33 -8 -67 -33 -139 -65 -182 -28 -37 -17 -53 13 -20 22 23 73 126 73 145 0 7
5 12 10 12 14 0 12 -28 -5 -87 -14 -48 -39 -78 -91 -109 -21 -13 -13 -31 8
-20 56 27 76 48 108 111 20 38 41 70 48 73 7 2 20 18 29 35 9 18 18 27 20 20
6 -16 -33 -89 -52 -96 -8 -4 -15 -15 -15 -24 0 -10 -7 -29 -16 -41 -9 -13 -14
-25 -11 -28 2 -3 14 10 25 28 12 18 31 45 43 59 12 15 29 51 39 79 15 43 19
49 24 32 4 -12 2 -30 -4 -42 -9 -16 -8 -20 6 -20 13 0 14 -3 4 -15 -10 -13 -9
-15 9 -15 32 0 25 -19 -19 -57 -22 -19 -40 -39 -40 -44 0 -15 41 0 66 22 23
21 34 17 27 -9 -5 -21 -65 -52 -98 -52 -23 0 -24 -2 -13 -20 17 -27 54 -25 95
6 20 15 33 20 33 12 -1 -24 -27 -48 -59 -54 -38 -8 -40 -21 -4 -35 24 -9 30
-7 45 11 16 20 17 20 16 -12 -1 -18 -8 -43 -16 -56 -18 -28 -12 -34 33 -39
l35 -4 -5 53 c-9 94 -16 131 -45 228 -15 52 -31 108 -34 123 -4 15 -22 61 -41
102 -19 41 -35 77 -35 80 0 3 -25 56 -55 119 -39 81 -69 129 -104 165 -56 58
-78 64 -86 24z m207 -505 c-6 -6 -14 -9 -17 -6 -3 3 -3 13 1 22 5 12 10 14 17
7 8 -8 8 -14 -1 -23z"/>
<path d="M2896 6100 c-4 -19 -12 -40 -17 -45 -7 -10 -9 -55 -2 -55 12 0 33 69
31 98 l-3 37 -9 -35z"/>
<path d="M2837 6070 c-15 -39 -15 -39 4 -30 12 7 19 21 19 40 0 17 -2 30 -3
30 -2 0 -11 -18 -20 -40z"/>
<path d="M3030 5868 c0 -15 4 -29 9 -32 16 -10 20 -116 6 -157 -8 -22 -10 -37
-5 -34 30 19 33 154 4 220 l-13 30 -1 -27z"/>
<path d="M2890 5845 c0 -33 -35 -93 -68 -116 -19 -13 -29 -25 -22 -27 19 -7
89 69 100 108 12 44 12 50 0 50 -5 0 -10 -7 -10 -15z"/>
<path d="M2760 5820 c-9 -6 -10 -10 -3 -10 6 0 15 5 18 10 8 12 4 12 -15 0z"/>
<path d="M3105 5819 c-4 -6 -5 -12 -2 -15 2 -3 7 2 10 11 7 17 1 20 -8 4z"/>
<path d="M2764 5786 c-27 -9 -30 -14 -23 -34 13 -34 47 -29 78 11 16 20 8 23
-11 3 -8 -7 -24 -17 -37 -21 -30 -9 -24 15 7 31 48 24 40 30 -14 10z"/>
<path d="M2991 5774 c0 -11 3 -14 6 -6 3 7 2 16 -1 19 -3 4 -6 -2 -5 -13z"/>
<path d="M3020 5749 c-22 -88 -33 -111 -63 -146 -17 -19 -40 -39 -51 -43 -19
-8 -19 -9 -2 -9 15 -1 16 -4 7 -15 -9 -11 -8 -15 5 -20 18 -7 64 18 64 34 0 6
5 10 10 10 17 0 11 -16 -16 -43 -14 -14 -23 -31 -19 -37 17 -27 74 67 75 122
0 27 -1 27 -46 -18 -25 -25 -48 -43 -51 -40 -3 3 6 18 22 33 44 44 56 67 71
139 15 76 11 100 -6 33z"/>
<path d="M2890 5743 c-12 -21 -31 -43 -43 -48 -11 -6 -23 -16 -25 -24 -10 -30
61 24 81 62 26 50 15 59 -13 10z"/>
<path d="M3082 5712 c-11 -74 -45 -172 -75 -215 -26 -38 -17 -43 15 -9 44 46
107 269 81 285 -6 4 -15 -21 -21 -61z"/>
<path d="M2980 5734 c0 -28 -56 -114 -75 -114 -8 0 -15 -7 -15 -15 0 -28 30
-15 60 26 29 40 49 104 36 116 -3 4 -6 -3 -6 -13z"/>
<path d="M3260 5545 c-12 -19 -25 -35 -30 -35 -4 0 -10 -9 -13 -20 -5 -18 -3
-18 19 -4 22 15 64 72 64 88 0 17 -21 2 -40 -29z"/>
<path d="M3328 5343 c-30 -5 -37 -18 -14 -26 8 -3 22 3 32 14 9 10 15 18 13
18 -2 -1 -16 -4 -31 -6z"/>
<path d="M2176 5124 c-37 -47 -66 -87 -64 -89 2 -1 16 -5 32 -9 26 -6 28 -5
16 9 -20 24 -2 32 31 13 l29 -17 -22 30 c-15 20 -19 32 -11 40 7 7 15 2 27
-15 9 -15 23 -26 32 -26 13 0 12 5 -5 26 -22 28 -28 64 -11 64 5 0 14 -9 20
-21 17 -32 20 -19 6 34 l-12 47 -68 -86z"/>
</g>
</svg>
