<?xml version="1.0" standalone="no"?>
<!DOCTYPE svg PUBLIC "-//W3C//DTD SVG 20010904//EN"
 "http://www.w3.org/TR/2001/REC-SVG-20010904/DTD/svg10.dtd">
<svg version="1.0" xmlns="http://www.w3.org/2000/svg"
 width="480.000000pt" height="640.000000pt" viewBox="0 0 480.000000 640.000000"
 preserveAspectRatio="xMidYMid meet">

<g transform="translate(0.000000,640.000000) scale(0.100000,-0.100000)"
fill="#000000" stroke="none">
<path d="M1962 2889 c-26 -27 -29 -34 -17 -45 7 -8 17 -14 21 -14 12 0 74 -44
74 -52 0 -4 -17 -16 -37 -27 l-38 -20 91 -1 c88 0 91 -1 103 -26 7 -17 9 -52
5 -106 -6 -64 -11 -81 -25 -86 -10 -4 -17 -11 -16 -17 1 -5 -20 -11 -47 -13
l-48 -3 33 -30 c18 -16 44 -32 57 -36 30 -7 133 3 141 14 3 5 19 19 35 31 23
18 34 39 47 90 26 105 7 199 -43 209 -18 3 -28 12 -28 23 0 32 -34 57 -95 71
-40 9 -69 22 -88 41 -40 39 -85 38 -125 -3z"/>
<path d="M2568 2908 c-6 -14 -14 -16 -38 -11 -31 6 -31 5 -28 -32 3 -40 -5
-35 171 -121 l59 -28 -26 -19 c-54 -39 -20 -75 51 -55 30 8 40 7 64 -11 15
-12 32 -21 37 -21 24 0 35 -31 24 -68 -13 -46 -4 -148 11 -133 16 16 37 14 37
-3 0 -20 -65 -39 -107 -31 -43 8 -37 -6 12 -30 49 -22 103 -12 146 27 19 16
44 37 57 45 14 10 22 25 22 45 0 16 8 43 17 61 22 42 18 141 -7 178 -17 22
-135 89 -159 89 -5 0 -22 6 -38 14 -15 8 -48 20 -73 27 -58 17 -120 48 -120
61 0 7 -14 8 -35 5 -22 -4 -35 -2 -35 5 0 7 -5 6 -14 -1 -11 -10 -15 -8 -18 6
-3 17 -4 17 -10 1z"/>
</g>
</svg>
