<?xml version="1.0" standalone="no"?>
<!DOCTYPE svg PUBLIC "-//W3C//DTD SVG 20010904//EN"
 "http://www.w3.org/TR/2001/REC-SVG-20010904/DTD/svg10.dtd">
<svg version="1.0" xmlns="http://www.w3.org/2000/svg"
 width="480.000000pt" height="640.000000pt" viewBox="0 0 480.000000 640.000000"
 preserveAspectRatio="xMidYMid meet">

<g transform="translate(0.000000,640.000000) scale(0.100000,-0.100000)"
fill="#000000" stroke="none">
<path d="M2870 5516 c0 -2 9 -23 20 -47 37 -82 18 -139 -46 -139 -38 1 -70 28
-79 69 -4 18 -11 29 -16 24 -4 -4 -4 -25 1 -47 10 -45 -1 -80 -29 -96 -41 -21
-101 33 -101 90 0 23 -18 27 -26 7 -15 -40 58 -127 106 -127 27 0 70 36 70 59
0 9 9 11 30 6 17 -4 48 -4 69 0 63 11 77 73 37 168 -8 20 -20 37 -25 37 -6 0
-11 -2 -11 -4z"/>
<path d="M2312 5430 c-18 -58 -16 -109 6 -117 9 -4 24 -15 32 -25 8 -10 29
-21 47 -24 28 -6 34 -3 52 27 22 35 30 129 12 129 -6 0 -13 -21 -16 -47 -10
-75 -14 -83 -40 -83 -13 0 -27 5 -30 10 -3 6 3 10 14 10 17 0 21 6 21 30 0 29
-21 42 -35 20 -10 -16 -36 1 -30 21 7 21 -4 89 -14 89 -3 0 -12 -18 -19 -40z"/>
<path d="M2805 5426 c-28 -21 -10 -70 27 -74 24 -3 28 1 33 32 4 19 4 39 0 45
-9 15 -38 14 -60 -3z"/>
<path d="M2654 5355 c-10 -25 4 -45 30 -45 25 0 44 30 31 50 -10 15 -55 12
-61 -5z"/>
</g>
</svg>
