<?xml version="1.0" standalone="no"?>
<!DOCTYPE svg PUBLIC "-//W3C//DTD SVG 20010904//EN"
 "http://www.w3.org/TR/2001/REC-SVG-20010904/DTD/svg10.dtd">
<svg version="1.0" xmlns="http://www.w3.org/2000/svg"
 width="480.000000pt" height="640.000000pt" viewBox="0 0 480.000000 640.000000"
 preserveAspectRatio="xMidYMid meet">

<g transform="translate(0.000000,640.000000) scale(0.100000,-0.100000)"
fill="#000000" stroke="none">
<path d="M2710 5661 c0 -50 21 -101 41 -101 9 0 19 -7 23 -15 3 -8 9 -14 13
-14 4 1 16 -2 27 -6 21 -9 43 2 63 32 12 18 12 23 -2 36 -8 9 -15 20 -15 24 0
10 -70 48 -82 45 -4 -1 -4 6 -1 15 4 11 3 14 -5 9 -7 -4 -12 -4 -12 1 0 4 -11
8 -25 8 -22 0 -25 -4 -25 -34z"/>
</g>
</svg>
