<?xml version="1.0" standalone="no"?>
<!DOCTYPE svg PUBLIC "-//W3C//DTD SVG 20010904//EN"
 "http://www.w3.org/TR/2001/REC-SVG-20010904/DTD/svg10.dtd">
<svg version="1.0" xmlns="http://www.w3.org/2000/svg"
 width="480.000000pt" height="640.000000pt" viewBox="0 0 480.000000 640.000000"
 preserveAspectRatio="xMidYMid meet">

<g transform="translate(0.000000,640.000000) scale(0.100000,-0.100000)"
fill="#000000" stroke="none">
<path d="M1217 2258 c-2 -18 -16 -80 -30 -138 -28 -114 -47 -256 -46 -335 1
-54 -7 -77 -46 -140 -14 -22 -38 -68 -54 -102 -16 -34 -38 -71 -49 -83 -10
-11 -32 -53 -47 -93 -16 -40 -32 -76 -36 -82 -4 -5 -26 -46 -49 -90 -24 -44
-51 -91 -60 -105 -9 -14 -34 -60 -54 -102 -21 -43 -44 -82 -52 -89 -8 -6 -14
-26 -14 -43 -1 -17 -11 -49 -23 -72 -50 -94 -147 -296 -147 -309 0 -4 -8 -19
-19 -33 -10 -15 -21 -43 -25 -62 -3 -19 -20 -69 -37 -110 -25 -61 -30 -84 -25
-124 3 -27 11 -53 18 -58 19 -11 82 -10 95 3 8 8 17 5 33 -11 19 -19 29 -21
64 -16 22 4 52 15 66 24 31 22 166 293 205 412 16 47 34 89 42 93 7 4 13 21
13 37 0 16 4 31 9 34 5 4 19 36 31 73 12 36 34 92 50 122 15 31 34 73 41 94 7
20 17 37 21 37 4 0 8 5 8 10 0 6 11 33 24 60 14 28 27 63 31 78 3 15 16 43 28
62 19 32 76 176 137 350 42 118 51 135 81 155 44 30 141 155 194 253 15 28 32
52 37 52 4 0 8 9 8 20 0 10 10 29 23 42 13 13 28 35 34 49 11 25 10 26 -28 27
-32 2 -47 -5 -82 -35 -70 -62 -135 -135 -148 -167 -7 -17 -20 -42 -29 -56 -10
-14 -23 -42 -29 -62 -7 -21 -16 -38 -20 -38 -5 0 -18 -28 -31 -62 -12 -33 -35
-73 -50 -87 -15 -14 -42 -55 -60 -91 -35 -69 -88 -153 -102 -158 -4 -2 -8 -10
-8 -18 0 -8 -4 -14 -10 -14 -17 0 -12 21 40 153 28 71 50 143 50 162 0 19 5
37 10 40 6 3 10 16 10 29 0 12 9 32 20 44 11 12 20 31 20 43 0 26 17 119 35
196 8 33 10 66 4 95 -4 23 -8 59 -9 79 0 34 -31 89 -50 89 -4 0 -10 -15 -13
-32z"/>
</g>
</svg>
