<?xml version="1.0" standalone="no"?>
<!DOCTYPE svg PUBLIC "-//W3C//DTD SVG 20010904//EN"
 "http://www.w3.org/TR/2001/REC-SVG-20010904/DTD/svg10.dtd">
<svg version="1.0" xmlns="http://www.w3.org/2000/svg"
 width="480.000000pt" height="640.000000pt" viewBox="0 0 480.000000 640.000000"
 preserveAspectRatio="xMidYMid meet">

<g transform="translate(0.000000,640.000000) scale(0.100000,-0.100000)"
fill="#000000" stroke="none">
<path d="M1217 2263 c-2 -21 -16 -85 -30 -143 -28 -114 -47 -256 -46 -335 1
-54 -7 -77 -46 -140 -14 -22 -38 -68 -54 -102 -16 -34 -38 -71 -49 -83 -10
-11 -32 -53 -47 -93 -16 -40 -32 -76 -36 -82 -4 -5 -26 -46 -49 -90 -24 -44
-51 -91 -60 -105 -9 -14 -34 -60 -54 -102 -21 -43 -44 -82 -52 -89 -8 -6 -14
-26 -14 -43 -1 -17 -11 -49 -23 -72 -50 -94 -147 -296 -147 -309 0 -4 -8 -19
-19 -33 -10 -15 -21 -43 -25 -62 -3 -19 -20 -69 -37 -110 -25 -61 -30 -84 -25
-124 3 -27 11 -53 18 -58 19 -11 82 -10 95 3 8 8 17 5 33 -11 19 -19 29 -21
64 -16 22 4 52 15 66 24 31 22 166 293 205 412 16 47 34 89 42 93 7 4 13 21
13 37 0 16 4 31 9 34 5 4 19 36 31 73 12 36 34 92 50 122 15 31 34 73 41 94 7
20 17 37 21 37 4 0 8 5 8 10 0 6 11 33 24 60 14 28 27 63 31 78 3 15 16 43 28
62 19 32 76 176 137 350 42 118 51 135 81 155 44 30 141 155 194 253 15 28 32
52 37 52 4 0 8 9 8 20 0 10 10 29 23 42 25 25 52 78 39 78 -10 0 -37 -32 -53
-62 -7 -12 -23 -31 -36 -41 -12 -10 -23 -25 -23 -33 0 -15 -25 -59 -47 -82 -7
-7 -13 -18 -13 -23 0 -5 -9 -20 -21 -32 -11 -12 -30 -41 -41 -64 -11 -24 -26
-43 -32 -43 -7 0 -23 -13 -36 -30 -14 -16 -30 -29 -36 -30 -7 0 -14 -7 -18
-15 -3 -8 -12 -15 -19 -15 -8 0 -19 -11 -25 -25 -6 -14 -17 -24 -24 -23 -7 2
-31 -31 -53 -73 -50 -94 -98 -169 -107 -169 -5 0 -8 -7 -8 -15 0 -8 -4 -15
-10 -15 -17 0 -12 21 40 154 49 124 57 166 35 173 -5 1 -38 -55 -73 -125 -34
-70 -91 -182 -126 -249 -35 -67 -62 -124 -59 -127 4 -3 6 -20 7 -38 1 -29 4
-33 30 -33 31 0 36 6 63 80 14 39 19 45 21 27 2 -13 -1 -29 -7 -36 -5 -6 -13
-30 -17 -52 -5 -36 -4 -41 21 -52 14 -7 28 -12 29 -12 8 0 46 72 46 85 0 17
30 84 46 105 7 8 28 60 47 115 78 222 109 295 127 295 5 0 -2 -30 -16 -67 -14
-38 -48 -127 -75 -200 -44 -122 -69 -183 -136 -333 -76 -169 -133 -302 -153
-355 -13 -33 -34 -82 -46 -110 -13 -27 -33 -79 -44 -115 -27 -81 -36 -91 -52
-55 -10 23 -10 29 5 40 10 7 15 19 11 29 -4 10 4 33 20 56 14 22 26 44 26 50
0 5 5 10 11 10 6 0 8 9 4 20 -4 11 -2 20 4 20 16 0 52 91 56 140 3 51 13 82
25 75 7 -4 70 116 84 160 8 26 -43 51 -95 47 -22 -2 -40 2 -48 12 -7 8 -19 12
-27 9 -11 -4 -9 5 7 31 12 20 19 39 16 42 -3 3 -17 -15 -32 -39 -19 -33 -24
-53 -19 -72 5 -22 3 -27 -16 -32 -16 -4 -20 -11 -16 -25 3 -13 -4 -28 -19 -42
-26 -24 -85 -135 -85 -160 0 -9 -7 -31 -16 -47 -8 -17 -13 -33 -10 -36 3 -4
-3 -21 -15 -39 -11 -18 -22 -43 -24 -55 -3 -13 -11 -27 -20 -31 -8 -5 -15 -14
-15 -19 0 -6 4 -8 9 -5 5 4 0 -16 -12 -44 -11 -27 -24 -45 -28 -39 -7 12 -29
-43 -29 -73 0 -11 -4 -16 -10 -13 -5 3 -7 0 -4 -8 3 -8 -2 -21 -10 -30 -9 -9
-16 -20 -16 -25 0 -6 -6 -23 -14 -39 -50 -98 -61 -153 -31 -153 8 0 15 -5 15
-11 0 -7 10 -5 25 5 28 19 35 20 35 6 0 -15 -50 -44 -81 -46 -61 -4 -62 42 -6
201 42 119 71 184 181 410 46 94 96 199 112 235 16 36 47 97 70 135 45 77 164
307 164 318 0 4 24 49 53 100 29 50 66 118 82 150 20 40 34 57 48 57 14 0 17
3 9 13 -16 19 -23 71 -12 87 8 12 10 9 10 -12 0 -34 27 -38 53 -7 17 20 17 21
-10 54 -32 39 -40 42 -46 18 -8 -27 4 117 13 157 6 28 7 21 8 -37 1 -75 15
-117 35 -110 13 4 38 137 26 137 -12 0 -18 27 -23 112 -6 92 8 75 19 -24 4
-33 12 -58 20 -61 18 -7 24 32 14 86 -4 23 -8 57 -9 76 0 32 -36 101 -51 101
-4 0 -9 -17 -12 -37z m-187 -1261 c0 -5 -6 -16 -13 -27 -10 -13 -16 -15 -21
-6 -4 6 -2 18 4 26 13 16 30 20 30 7z m-210 -607 c0 -8 -125 -249 -140 -271
-20 -28 -76 -47 -101 -33 -30 16 -22 28 16 24 20 -3 35 0 35 5 0 6 7 10 15 10
8 0 17 11 21 25 3 14 10 25 14 25 4 0 15 17 24 38 9 20 20 44 25 52 5 8 21 41
36 73 15 31 34 57 41 57 8 0 14 -2 14 -5z"/>
<path d="M1588 2113 c-24 -21 -51 -45 -61 -55 -10 -9 -17 -23 -15 -32 3 -13 8
-13 43 3 35 16 105 91 105 113 0 19 -33 5 -72 -29z"/>
<path d="M1530 1994 c-14 -9 -42 -38 -63 -65 -21 -27 -45 -49 -53 -49 -17 0
-18 -12 -3 -27 19 -19 59 8 110 74 25 32 49 64 53 71 10 17 -14 15 -44 -4z"/>
<path d="M1360 1790 c-25 -30 -26 -50 -2 -50 17 1 57 31 80 62 12 15 10 16
-22 15 -25 -1 -42 -10 -56 -27z"/>
<path d="M600 539 c-7 -11 -10 -23 -7 -25 2 -2 9 7 15 21 14 30 7 33 -8 4z"/>
</g>
</svg>
