<?xml version="1.0" standalone="no"?>
<!DOCTYPE svg PUBLIC "-//W3C//DTD SVG 20010904//EN"
 "http://www.w3.org/TR/2001/REC-SVG-20010904/DTD/svg10.dtd">
<svg version="1.0" xmlns="http://www.w3.org/2000/svg"
 width="480.000000pt" height="640.000000pt" viewBox="0 0 480.000000 640.000000"
 preserveAspectRatio="xMidYMid meet">

<g transform="translate(0.000000,640.000000) scale(0.100000,-0.100000)"
fill="#000000" stroke="none">
<path d="M2092 5015 c-29 -24 -132 -175 -132 -193 0 -4 -8 -17 -17 -28 -27
-29 -66 -93 -93 -149 -13 -27 -51 -95 -85 -150 -34 -55 -84 -145 -111 -200
-27 -55 -55 -104 -62 -110 -10 -8 -62 -141 -92 -235 -4 -14 -27 -68 -50 -120
-26 -57 -44 -113 -46 -140 -3 -51 -74 -252 -99 -280 -26 -29 -31 -121 -9 -160
17 -29 22 -31 55 -26 27 4 38 2 43 -9 8 -21 42 -19 65 4 16 16 21 17 42 5 37
-20 58 -17 97 17 30 27 36 29 44 15 5 -9 22 -16 38 -16 22 0 39 12 76 53 l47
54 50 -8 c58 -9 73 -2 93 47 11 26 17 30 41 27 24 -4 37 4 81 49 29 29 55 61
58 71 3 9 18 24 34 32 30 16 84 78 116 133 10 18 34 40 52 49 25 12 40 30 57
70 13 29 29 53 34 53 6 0 11 8 11 18 0 11 8 43 19 74 27 78 68 337 70 444 3
123 -14 204 -56 265 -18 27 -33 52 -33 55 0 4 -17 30 -38 58 -20 28 -49 68
-62 89 -14 20 -32 39 -42 42 -9 3 -23 24 -32 45 -12 31 -21 40 -39 40 -13 0
-32 9 -42 20 -24 27 -47 25 -83 -5z"/>
</g>
</svg>
