<?xml version="1.0" standalone="no"?>
<!DOCTYPE svg PUBLIC "-//W3C//DTD SVG 20010904//EN"
 "http://www.w3.org/TR/2001/REC-SVG-20010904/DTD/svg10.dtd">
<svg version="1.0" xmlns="http://www.w3.org/2000/svg"
 width="480.000000pt" height="640.000000pt" viewBox="0 0 480.000000 640.000000"
 preserveAspectRatio="xMidYMid meet">

<g transform="translate(0.000000,640.000000) scale(0.100000,-0.100000)"
fill="#000000" stroke="none">
<path d="M2057 4978 c-37 -49 -97 -146 -97 -156 0 -4 -8 -17 -17 -28 -27 -29
-66 -93 -93 -149 -13 -27 -51 -95 -85 -150 -34 -55 -84 -145 -111 -200 -27
-55 -55 -104 -62 -110 -10 -8 -62 -141 -92 -235 -4 -14 -27 -67 -50 -119 -23
-51 -44 -108 -45 -125 -7 -71 -65 -246 -95 -288 -11 -15 -22 -46 -26 -70 -8
-59 -53 -242 -74 -304 -10 -28 -43 -91 -74 -141 -31 -50 -56 -94 -56 -98 0 -3
-21 -39 -46 -78 -26 -40 -60 -97 -75 -127 -16 -30 -45 -72 -64 -94 -19 -21
-35 -43 -35 -48 0 -15 -134 -228 -167 -265 -15 -17 -48 -71 -73 -119 -25 -49
-57 -102 -71 -119 -39 -45 -44 -70 -17 -89 12 -9 37 -16 56 -16 29 0 48 15
160 128 153 155 217 224 254 277 16 22 46 65 67 95 22 30 66 80 98 112 100 97
131 130 181 197 19 25 39 48 44 49 4 2 8 8 8 14 0 5 6 15 13 22 6 7 44 48 82
91 39 43 92 101 118 129 27 28 61 67 75 86 15 19 35 44 45 55 36 38 192 246
209 278 15 26 23 31 46 29 22 -3 38 7 80 50 29 29 55 61 58 71 3 9 18 24 34
32 30 16 84 78 116 133 10 18 34 40 52 49 25 12 40 30 57 70 13 29 29 53 34
53 6 0 11 8 11 18 0 11 8 43 19 73 24 70 61 282 67 378 4 77 -15 207 -43 294
-15 48 -41 83 -78 103 -30 17 -55 61 -75 133 -6 24 -25 57 -41 73 -16 16 -29
35 -29 42 0 8 -20 16 -52 20 -100 11 -115 9 -141 -26z"/>
</g>
</svg>
