<?xml version="1.0" standalone="no"?>
<!DOCTYPE svg PUBLIC "-//W3C//DTD SVG 20010904//EN"
 "http://www.w3.org/TR/2001/REC-SVG-20010904/DTD/svg10.dtd">
<svg version="1.0" xmlns="http://www.w3.org/2000/svg"
 width="480.000000pt" height="640.000000pt" viewBox="0 0 480.000000 640.000000"
 preserveAspectRatio="xMidYMid meet">

<g transform="translate(0.000000,640.000000) scale(0.100000,-0.100000)"
fill="#000000" stroke="none">
<path d="M2057 4978 c-37 -49 -97 -146 -97 -156 0 -4 -8 -17 -17 -28 -27 -29
-66 -93 -93 -149 -13 -27 -51 -95 -85 -150 -34 -55 -84 -145 -111 -200 -27
-55 -55 -104 -62 -110 -10 -8 -62 -141 -92 -235 -4 -14 -27 -67 -50 -119 -23
-51 -44 -108 -45 -125 -7 -71 -65 -246 -95 -288 -11 -15 -22 -46 -26 -70 -8
-59 -53 -242 -74 -304 -10 -28 -43 -91 -74 -141 -31 -50 -56 -94 -56 -98 0 -3
-21 -39 -46 -78 -26 -40 -60 -97 -75 -127 -16 -30 -45 -72 -64 -94 -19 -21
-35 -43 -35 -48 0 -15 -134 -228 -167 -265 -15 -17 -48 -71 -73 -119 -25 -49
-57 -102 -71 -119 -39 -45 -44 -70 -17 -89 12 -9 37 -16 56 -16 29 0 48 15
160 128 153 155 217 224 254 277 16 22 46 65 67 95 22 30 66 80 98 112 100 97
131 130 181 197 19 25 39 48 44 49 4 2 8 8 8 14 0 5 6 15 13 22 6 7 44 48 82
91 39 43 92 101 118 129 27 28 61 67 75 86 15 19 35 44 45 55 36 38 192 246
209 278 15 26 23 31 46 29 22 -3 38 7 80 50 29 29 55 61 58 71 3 9 18 24 34
32 30 16 84 78 116 133 10 18 34 40 52 49 25 12 40 30 57 70 13 29 29 53 34
53 6 0 11 8 11 18 0 11 8 43 19 74 28 83 74 359 61 372 -5 5 -10 18 -10 28 0
13 -8 18 -28 18 -30 0 -82 45 -82 71 0 10 -2 11 -8 2 -12 -20 -7 -116 6 -121
7 -2 12 -9 12 -15 0 -17 54 -39 75 -31 15 6 16 1 10 -62 -8 -84 -29 -180 -55
-256 -26 -74 -90 -198 -104 -200 -6 0 -17 -2 -25 -2 -8 -1 -28 -26 -45 -57
-38 -69 -74 -114 -83 -105 -4 3 -1 12 5 18 7 7 12 16 12 21 0 5 -17 -14 -37
-43 -108 -150 -143 -181 -168 -147 -10 14 -17 8 -46 -38 -19 -30 -42 -57 -52
-60 -9 -4 -15 -10 -12 -15 6 -9 -84 -139 -133 -191 -17 -18 -35 -30 -39 -25
-4 4 4 18 19 31 19 16 26 30 22 42 -4 12 -3 14 3 6 6 -8 23 7 56 52 26 35 50
70 53 79 11 28 -24 18 -43 -11 -91 -145 -221 -293 -256 -293 -10 0 -16 -4 -13
-9 3 -5 -29 -44 -72 -87 -43 -44 -107 -115 -142 -159 -35 -44 -68 -84 -74 -90
-7 -5 -23 -26 -36 -45 -13 -19 -32 -44 -42 -54 -18 -20 -18 -19 -18 2 0 11 15
36 34 54 19 19 51 58 72 88 21 30 42 60 48 66 6 6 29 33 51 60 22 27 63 72 92
101 50 49 65 73 44 73 -6 0 -12 -4 -16 -10 -3 -5 -11 -7 -18 -5 -14 5 -84 -83
-79 -99 2 -6 0 -8 -4 -4 -4 4 -23 -15 -42 -42 -34 -49 -55 -62 -32 -21 6 12 8
26 5 32 -4 5 -52 -48 -107 -118 -152 -193 -218 -250 -218 -187 0 21 4 24 19
19 15 -4 34 8 75 51 31 31 56 60 56 65 0 5 17 28 38 52 21 23 49 58 64 77 14
19 35 46 47 60 12 13 31 39 42 57 11 18 27 33 35 33 11 0 6 -13 -16 -44 -52
-76 -33 -78 24 -3 41 54 45 67 16 60 -11 -3 -20 -1 -20 5 0 6 -9 8 -20 5 -12
-3 -20 0 -20 7 0 9 -7 7 -20 -5 -15 -14 -23 -15 -33 -6 -8 6 -17 8 -20 4 -4
-3 -10 2 -13 12 -5 12 -1 24 13 34 11 9 26 27 32 39 20 37 40 112 31 117 -12
7 -21 64 -14 92 5 20 12 24 30 20 17 -3 28 3 39 19 18 27 20 48 4 38 -7 -4 -7
2 1 17 17 33 24 38 16 13 -4 -14 -2 -21 8 -21 9 0 13 4 10 9 -3 4 -1 8 3 8 16
0 75 169 69 195 -5 19 -2 25 11 26 10 1 2 5 -17 9 -42 10 -45 8 -68 -58 -10
-29 -22 -55 -27 -60 -11 -11 4 36 31 94 13 28 24 59 24 69 0 10 5 35 12 56 9
31 14 37 25 28 7 -6 13 -22 13 -35 0 -14 6 -24 14 -24 10 0 15 21 18 78 6 90
40 172 71 172 14 0 17 -4 12 -17 -21 -53 -34 -112 -30 -140 5 -41 45 -98 57
-81 6 10 8 10 8 1 0 -15 48 -17 70 -3 8 5 10 10 4 10 -20 0 -36 55 -41 147 -4
65 -2 97 6 107 10 11 10 19 1 33 -9 14 -11 15 -6 1 14 -46 -90 -68 -113 -24
-7 13 -10 33 -6 45 7 23 25 29 25 8 0 -7 9 -18 20 -25 16 -10 20 -10 20 0 0
10 2 10 9 0 6 -10 10 -10 19 1 10 11 7 24 -13 60 -31 54 -28 74 25 167 20 36
40 74 45 85 7 17 9 18 12 3 2 -9 -2 -27 -10 -40 -12 -19 -25 -56 -31 -88 -1
-3 -5 -11 -10 -18 -5 -8 -4 -18 3 -25 6 -6 11 -20 11 -32 0 -20 53 -75 72 -75
6 0 8 10 4 23 -3 12 -9 50 -13 84 -7 79 8 123 44 123 20 0 24 -3 17 -17 -17
-41 7 -163 32 -163 7 0 14 -5 16 -11 2 -6 14 -8 31 -4 20 5 26 12 22 23 -5 12
-3 13 10 2 14 -11 14 -10 5 14 -5 15 -13 60 -17 99 -4 40 -9 64 -11 54 -6 -27
-42 45 -42 83 0 27 -2 30 -20 20 -28 -15 -60 7 -60 42 0 55 23 78 34 33 4 -16
13 -25 26 -25 11 0 20 -5 20 -12 0 -6 6 -3 14 7 10 14 11 25 4 38 -5 10 -7 25
-4 32 5 13 -28 32 -46 27 -4 -1 1 12 12 30 10 17 25 33 32 34 28 5 86 34 92
46 5 10 7 10 12 1 3 -7 15 -13 27 -13 22 1 22 1 2 12 -27 16 -45 34 -45 47 0
6 -5 11 -11 11 -6 0 -9 8 -7 18 2 9 9 17 15 17 18 0 46 43 39 60 -3 8 -2 15 2
15 5 0 13 12 19 28 10 26 11 26 12 3 1 -20 5 -22 29 -16 15 3 33 13 41 20 17
17 23 79 7 66 -6 -5 -21 -12 -33 -15 -18 -6 -20 -4 -16 14 3 12 16 23 32 26
14 3 34 9 43 14 11 6 18 5 20 -2 3 -7 14 -5 35 6 18 9 41 16 53 16 40 0 21 28
-22 32 -40 4 -50 0 -62 -27 -3 -5 -14 0 -24 13 -27 29 -37 28 -65 -10z m-309
-585 c-1 -5 4 -20 11 -34 15 -30 46 -29 56 2 10 32 22 21 21 -18 -1 -37 -2
-38 -43 -41 -30 -2 -43 -8 -45 -20 -3 -14 -6 -13 -17 7 -8 14 -9 21 -2 17 13
-9 13 -9 1 33 -7 24 -6 39 1 48 13 14 20 17 17 6z m117 -103 c-3 -5 -11 -10
-16 -10 -6 0 -7 5 -4 10 3 6 11 10 16 10 6 0 7 -4 4 -10z m-11 -78 c-17 -16
-18 -16 -11 1 4 10 7 26 7 35 1 15 2 15 11 -1 8 -13 6 -22 -7 -35z m-27 -14
c-3 -8 -6 -5 -6 6 -1 11 2 17 5 13 3 -3 4 -12 1 -19z m-100 -25 c-3 -10 -5 -4
-5 12 0 17 2 24 5 18 2 -7 2 -21 0 -30z m-82 -223 c-3 -5 -12 -10 -18 -10 -7
0 -6 4 3 10 19 12 23 12 15 0z m17 -147 c-5 -7 -8 5 -9 30 -1 38 0 39 8 13 4
-16 5 -35 1 -43z m-22 -778 c-13 -16 -50 -21 -50 -7 0 15 13 22 38 22 21 0 22
-2 12 -15z m-354 -74 c-30 -47 -170 -191 -185 -191 -24 0 -9 31 22 44 37 15
73 54 122 130 30 48 53 69 63 61 2 -2 -8 -21 -22 -44z m319 29 c-3 -5 -11 -10
-16 -10 -6 0 -7 5 -4 10 3 6 11 10 16 10 6 0 7 -4 4 -10z m-46 -47 c-13 -15
-43 -48 -66 -73 -66 -72 -83 -92 -123 -145 -36 -49 -267 -289 -240 -250 8 11
29 36 46 55 51 56 137 155 158 181 56 71 127 150 178 202 60 58 91 78 47 30z
m-303 -175 c-14 -18 -30 -37 -34 -43 -37 -50 -150 -180 -258 -297 -74 -80
-114 -96 -114 -45 0 16 3 18 11 10 19 -19 59 8 111 74 26 32 85 98 132 148 47
49 86 93 86 98 0 11 82 98 88 93 2 -3 -7 -20 -22 -38z m-131 -8 c-3 -5 -12
-10 -18 -10 -7 0 -6 4 3 10 19 12 23 12 15 0z m15 -210 c-6 -11 -18 -20 -28
-20 -14 1 -13 4 7 20 29 25 34 25 21 0z m-73 -84 c-15 -18 -59 -67 -98 -107
-94 -96 -159 -180 -152 -193 3 -6 2 -8 -2 -3 -9 8 -57 -32 -51 -42 2 -3 -11
-7 -30 -8 -30 -3 -34 0 -34 21 0 29 10 38 29 27 21 -13 46 -2 63 27 21 36 38
55 176 199 111 117 154 152 99 79z m37 -28 c-50 -85 -290 -366 -302 -353 -7 7
46 82 77 108 14 12 44 45 66 72 22 28 49 59 61 70 11 11 31 36 44 55 29 42 74
82 54 48z m-264 -132 c0 -3 -4 -8 -10 -11 -5 -3 -10 -1 -10 4 0 6 5 11 10 11
6 0 10 -2 10 -4z m-89 -89 c-10 -9 -11 -8 -5 6 3 10 9 15 12 12 3 -3 0 -11 -7
-18z m39 -148 c0 -14 -168 -179 -182 -179 -6 0 -9 2 -7 5 28 30 183 185 186
185 2 0 3 -5 3 -11z m-140 -26 c0 -5 -10 -19 -21 -33 l-20 -25 16 33 c15 30
25 41 25 25z m-50 -113 c0 -5 -7 -7 -15 -4 -8 4 -15 8 -15 10 0 2 7 4 15 4 8
0 15 -4 15 -10z m-25 -41 c-7 -10 -35 -1 -35 11 0 5 9 6 20 3 11 -3 17 -9 15
-14z"/>
<path d="M2250 4923 c0 -25 5 -32 25 -35 26 -5 49 12 26 20 -7 2 -21 13 -32
25 l-19 21 0 -31z"/>
<path d="M2195 4920 c-4 -11 -10 -18 -15 -15 -16 10 -40 -7 -40 -29 0 -31 8
-36 35 -24 23 10 45 46 45 73 0 22 -18 18 -25 -5z"/>
<path d="M2225 4840 c-14 -15 -13 -18 2 -32 31 -26 62 -28 83 -5 11 11 20 28
20 36 0 23 -84 24 -105 1z"/>
<path d="M2094 4816 c-16 -16 -20 -30 -17 -56 4 -34 6 -36 39 -32 29 4 34 8
34 31 0 28 -12 52 -26 54 -5 1 -8 8 -6 15 4 15 1 14 -24 -12z"/>
<path d="M2177 4759 c-8 -29 -1 -42 32 -62 35 -21 36 -21 55 -1 20 19 20 34 2
34 -8 0 -28 11 -44 25 -36 30 -38 30 -45 4z"/>
<path d="M2014 4735 c-20 -43 -15 -60 22 -63 38 -3 41 -9 10 -23 -37 -17 -36
-51 2 -47 29 3 29 2 16 121 -7 57 -26 62 -50 12z"/>
<path d="M2311 4751 c-21 -14 11 -59 47 -66 15 -4 42 -13 60 -21 40 -17 42
-17 42 0 0 29 -61 78 -102 81 -3 0 -10 3 -14 8 -9 9 -16 9 -33 -2z"/>
<path d="M2132 4700 c-7 -11 -19 -20 -27 -20 -18 0 -18 -5 -5 -29 14 -27 76
-36 105 -17 32 21 54 20 61 -1 16 -49 28 -63 55 -63 29 0 47 28 33 51 -3 6 0
15 7 20 11 7 9 9 -6 9 -11 0 -31 7 -44 16 -17 12 -26 13 -34 5 -12 -12 -62
-14 -91 -2 -10 4 -23 17 -30 29 -11 21 -12 21 -24 2z"/>
<path d="M2230 4614 c-22 -22 -42 -28 -92 -27 -21 0 -23 -11 -5 -24 28 -22 48
-22 65 -2 9 12 28 32 42 45 13 13 22 25 20 27 -3 3 -16 -6 -30 -19z"/>
<path d="M2378 4585 c-2 -42 0 -52 8 -40 6 8 13 13 15 11 2 -2 25 -7 51 -9 33
-4 46 -2 43 6 -2 7 -6 24 -9 38 -5 21 -13 28 -38 31 -18 3 -40 8 -50 12 -14 6
-17 -1 -20 -49z"/>
<path d="M2081 4589 c0 -9 2 -37 5 -63 6 -42 9 -46 34 -46 15 0 33 7 40 15 11
13 8 15 -17 15 -31 0 -48 21 -56 70 -2 14 -5 18 -6 9z"/>
<path d="M2237 4574 c-24 -32 -6 -77 38 -98 43 -21 65 -20 81 2 21 26 17 40
-10 35 -25 -5 -59 20 -80 62 l-12 22 -17 -23z"/>
<path d="M1927 4560 c-15 -16 -32 -30 -37 -30 -6 0 -2 -10 10 -22 24 -26 39
-16 42 27 1 17 6 36 11 43 18 24 0 12 -26 -18z"/>
<path d="M1975 4539 c-9 -38 -5 -41 45 -44 27 -1 40 2 40 11 0 7 3 20 7 30 5
14 2 16 -19 11 -17 -5 -30 -2 -38 8 -19 22 -28 18 -35 -16z"/>
<path d="M2185 4509 c-4 -6 -5 -12 -2 -15 2 -3 7 2 10 11 7 17 1 20 -8 4z"/>
<path d="M2408 4492 c-8 -28 25 -62 60 -62 51 0 54 54 4 63 -15 2 -34 7 -43
11 -11 5 -18 1 -21 -12z"/>
<path d="M2050 4462 c0 -16 -49 -23 -71 -11 -29 15 -37 2 -13 -22 l20 -20 43
24 c25 14 38 28 32 31 -6 4 -11 3 -11 -2z"/>
<path d="M2206 4429 c2 -47 18 -69 49 -69 61 0 79 43 23 55 -17 4 -41 18 -53
30 l-21 24 2 -40z"/>
<path d="M2114 4452 c-27 -18 -42 -84 -15 -68 4 3 18 -8 30 -24 14 -19 31 -30
46 -30 24 0 24 0 9 43 -28 82 -42 98 -70 79z"/>
<path d="M1891 4417 c-9 -25 -9 -33 4 -39 8 -5 15 -17 15 -26 0 -10 3 -13 8
-6 13 19 41 24 56 9 12 -13 15 -13 20 0 10 28 36 17 36 -15 0 -19 7 -33 20
-40 11 -6 20 -18 20 -26 0 -8 4 -13 9 -9 5 3 12 1 16 -5 3 -5 14 -10 24 -10
10 0 25 -7 32 -16 12 -15 14 -14 20 7 l7 24 1 -23 c1 -30 30 -26 42 6 7 19 5
22 -19 22 -15 0 -51 12 -80 27 -59 30 -89 71 -69 94 10 11 9 11 -3 2 -8 -6
-31 -14 -51 -18 -40 -7 -69 12 -69 45 0 33 -28 31 -39 -3z"/>
<path d="M2340 4420 c-9 -6 -10 -10 -3 -10 6 0 15 5 18 10 8 12 4 12 -15 0z"/>
<path d="M2317 4330 c-18 -26 -10 -71 19 -105 20 -23 26 -26 39 -15 12 10 15
10 15 -3 0 -8 8 -18 17 -21 17 -7 33 9 33 34 0 11 -2 12 -8 3 -5 -8 -13 -9
-22 -3 -8 6 -12 10 -8 10 4 0 -4 17 -18 37 -13 20 -27 47 -30 60 -7 28 -18 29
-37 3z"/>
<path d="M1949 4314 c-13 -7 -19 -14 -14 -14 6 0 4 -4 -4 -9 -12 -8 -12 -13 2
-35 9 -14 17 -32 17 -39 0 -36 85 -64 120 -40 21 15 20 15 -25 57 -25 24 -45
51 -45 63 0 27 -20 34 -51 17z"/>
<path d="M2210 4311 c0 -6 11 -13 25 -17 22 -5 24 -9 13 -23 -8 -9 -3 -8 11 4
l23 20 -23 3 c-13 2 -30 9 -36 14 -9 7 -13 7 -13 -1z"/>
<path d="M2238 4228 c-22 -33 -17 -70 14 -106 23 -27 33 -32 70 -32 24 0 51 7
61 14 17 13 15 15 -20 26 -49 16 -72 36 -93 83 l-17 38 -15 -23z"/>
<path d="M2172 4183 c-6 -2 -10 -9 -6 -14 3 -5 -3 -9 -14 -9 -10 0 -21 -2 -24
-5 -3 -3 2 -39 10 -81 11 -57 20 -78 36 -86 12 -6 25 -18 30 -26 4 -8 11 -10
15 -5 3 5 21 14 40 19 49 13 49 30 -2 61 -57 35 -81 74 -74 119 3 19 5 34 4
33 -1 0 -8 -3 -15 -6z"/>
<path d="M2425 4120 c-3 -5 -1 -10 4 -10 6 0 11 5 11 10 0 6 -2 10 -4 10 -3 0
-8 -4 -11 -10z"/>
<path d="M2050 4103 c-57 -24 -64 -55 -30 -125 11 -23 20 -47 20 -54 0 -15 47
-25 104 -22 l40 2 -31 12 c-40 17 -64 68 -66 144 -1 33 -1 60 -2 59 0 0 -16
-7 -35 -16z"/>
<path d="M1940 4105 c0 0 8 -8 18 -16 14 -12 21 -13 29 -3 9 9 5 13 -18 16
-16 3 -29 4 -29 3z"/>
<path d="M2416 4075 c-3 -9 -6 -22 -5 -28 0 -7 5 -1 10 12 5 13 8 26 5 28 -2
2 -6 -3 -10 -12z"/>
<path d="M2384 4026 c-3 -9 -15 -16 -25 -16 -10 0 -19 -4 -19 -10 0 -10 -78
-90 -88 -90 -4 0 -8 -24 -8 -53 -1 -28 -13 -83 -28 -122 -26 -72 -27 -78 -10
-67 33 22 96 205 79 231 -2 5 9 26 26 47 l30 39 -3 -50 c-2 -28 -6 -52 -9 -55
-4 -3 -1 -11 7 -18 11 -10 15 -5 23 25 6 21 12 49 15 63 6 35 18 64 29 71 5 4
5 9 -2 13 -6 4 -14 0 -17 -8z"/>
<path d="M1810 4013 c0 -9 -17 -13 -51 -13 -42 0 -49 -2 -40 -13 6 -8 8 -16 5
-19 -11 -12 -15 -66 -4 -73 5 -3 10 -17 10 -29 0 -35 28 -96 44 -96 8 0 16 -7
20 -15 6 -17 39 -20 66 -5 19 10 18 12 -5 47 -23 32 -31 72 -27 128 1 11 2 36
4 56 2 31 5 35 25 31 19 -4 21 -7 12 -24 -26 -48 46 -187 88 -171 7 3 20 0 28
-7 10 -8 15 -9 15 -2 0 6 6 9 13 6 8 -3 25 4 38 15 l24 19 -28 11 c-16 6 -33
9 -38 5 -5 -3 -8 -2 -7 3 2 4 -8 25 -21 46 -12 21 -25 55 -28 75 l-5 38 -69 0
c-48 -1 -69 -5 -69 -13z m130 -157 c0 -3 -4 -8 -10 -11 -5 -3 -10 -1 -10 4 0
6 5 11 10 11 6 0 10 -2 10 -4z"/>
<path d="M2180 3855 c-7 -8 -27 -15 -46 -15 -36 0 -50 -22 -45 -73 6 -61 -32
-165 -97 -265 -13 -20 -13 -22 2 -16 9 3 16 9 16 13 0 4 14 15 30 24 17 10 30
22 30 28 0 5 9 18 20 29 11 11 20 28 20 38 0 11 7 33 16 50 8 18 13 36 9 42
-3 6 0 7 9 4 11 -4 16 0 16 15 0 12 4 21 10 21 5 0 7 7 3 16 -3 10 0 22 8 28
8 6 15 26 15 44 0 37 0 37 -16 17z"/>
<path d="M2301 3794 c0 -11 3 -14 6 -6 3 7 2 16 -1 19 -3 4 -6 -2 -5 -13z"/>
<path d="M2043 3773 c-7 -2 -13 -12 -13 -21 0 -14 -2 -14 -9 -3 -5 8 -16 11
-30 6 -17 -5 -19 -10 -11 -20 7 -9 7 -21 0 -41 -6 -15 -8 -34 -5 -43 3 -8 3
-12 -1 -8 -7 6 -75 -136 -77 -160 0 -7 -3 -11 -6 -9 -3 2 -25 -24 -49 -57 -24
-34 -32 -50 -18 -34 15 16 35 27 51 27 14 0 25 6 25 13 0 8 4 7 10 -3 8 -12
10 -9 10 13 0 15 22 65 49 110 27 45 54 102 61 127 25 98 28 110 27 109 -1 0
-8 -3 -14 -6z"/>
<path d="M1897 3749 c14 -18 13 -55 -2 -57 -5 -1 -30 -5 -54 -8 -27 -4 -39 -9
-31 -14 11 -7 11 -17 0 -57 -8 -26 -14 -50 -14 -53 0 -3 -3 -9 -8 -15 -15 -19
-134 -200 -142 -215 -4 -8 0 -6 8 4 13 16 16 17 16 4 0 -11 6 -15 20 -11 11 3
20 10 20 15 0 5 4 7 8 4 12 -7 62 49 62 69 0 9 9 19 20 22 12 3 20 14 20 27 0
12 8 31 19 42 10 11 21 29 25 40 3 10 17 32 31 48 14 16 26 42 26 58 1 15 2
42 3 59 1 22 -5 34 -19 42 -17 9 -18 8 -8 -4z"/>
<path d="M1717 3677 c-10 -12 -34 -27 -55 -33 -34 -11 -35 -12 -9 -13 l27 -1
-15 -36 c-8 -20 -12 -41 -8 -47 4 -6 1 -7 -7 -2 -10 6 -12 4 -7 -8 3 -10 3
-17 -2 -17 -5 0 -17 -17 -26 -37 -10 -21 -26 -50 -37 -65 -11 -16 -16 -34 -12
-40 4 -7 4 -10 -1 -6 -4 4 -14 3 -22 -3 -15 -13 -18 -33 -3 -24 6 3 10 -4 10
-17 1 -22 2 -22 25 7 14 17 25 35 25 41 0 6 11 17 25 24 14 7 25 19 25 27 0 7
5 13 10 13 6 0 10 5 10 12 0 6 10 25 23 42 13 17 34 58 46 91 13 33 28 68 33
79 7 13 6 21 -4 27 -21 13 -32 11 -51 -14z m35 -9 c-7 -7 -12 -8 -12 -2 0 14
12 26 19 19 2 -3 -1 -11 -7 -17z"/>
<path d="M1580 3629 c0 -6 -7 -8 -16 -5 -12 4 -14 1 -9 -13 3 -11 0 -23 -7
-28 -20 -13 -61 -109 -53 -124 5 -7 4 -10 -2 -6 -6 4 -20 -14 -31 -41 -11 -26
-32 -62 -46 -81 -14 -19 -26 -40 -26 -45 0 -6 5 -4 10 4 5 8 13 15 17 16 27 4
73 28 73 39 0 8 11 27 25 43 14 17 25 35 25 41 0 6 4 11 9 11 5 0 11 8 14 18
3 9 13 37 23 62 29 78 33 108 17 114 -20 8 -23 8 -23 -5z m-9 -116 c-12 -20
-14 -14 -5 12 4 9 9 14 11 11 3 -2 0 -13 -6 -23z"/>
<path d="M1591 3258 c-18 -21 -41 -38 -50 -38 -13 0 -14 -2 -2 -9 12 -8 6 -22
-27 -76 -23 -36 -42 -69 -42 -73 0 -5 13 -8 29 -7 16 0 27 5 24 11 -2 5 9 28
24 50 15 21 41 65 59 97 23 43 33 54 38 42 6 -16 -11 -58 -44 -105 -9 -14 -15
-30 -13 -37 2 -6 -1 -15 -8 -19 -8 -5 -10 -3 -4 7 5 8 -1 5 -13 -5 -27 -23
-27 -22 -2 -29 16 -4 33 11 78 66 32 40 67 85 77 100 18 29 14 50 -7 29 -18
-18 -36 -15 -61 11 l-22 22 -34 -37z"/>
<path d="M1458 3238 c-21 -23 -38 -45 -38 -50 0 -5 -13 -33 -30 -63 -20 -36
-26 -56 -19 -61 6 -3 16 0 21 7 6 10 7 7 3 -9 -6 -20 -4 -23 12 -20 19 3 110
145 110 172 0 30 -15 16 -61 -56 -46 -73 -62 -84 -26 -18 10 19 24 46 31 60 6
14 18 37 26 53 18 35 15 34 -29 -15z"/>
<path d="M1365 3256 c-6 -6 -11 -23 -11 -39 -1 -15 -18 -60 -37 -101 -31 -64
-32 -73 -16 -69 21 6 52 45 63 79 4 12 15 29 26 39 14 13 18 25 13 49 -8 39
-25 57 -38 42z"/>
</g>
</svg>
